<?xml version="1.0" encoding="iso-8859-1"?>
<!-- Generator: Adobe Illustrator 19.0.0, SVG Export Plug-In . SVG Version: 6.00 Build 0)  -->
<svg version="1.1" id="Capa_1" xmlns="http://www.w3.org/2000/svg" xmlns:xlink="http://www.w3.org/1999/xlink" x="0px" y="0px"
	 viewBox="0 0 512.002 512.002" style="enable-background:new 0 0 512.002 512.002;" xml:space="preserve">
<rect x="300.851" y="211.47" style="fill:#E1EFFB;" width="37.703" height="91.023"/>
<polygon style="fill:#CCDFED;" points="300.856,268.298 338.559,263.719 338.559,224.626 300.856,229.205 "/>
<path style="fill:#E1EFFB;" d="M375.618,215.168L375.618,215.168c-1.548-10.608-11.402-17.951-22.009-16.404l-200.821,24.389
	c-10.607,1.548-17.951,11.402-16.404,22.009c1.548,10.608,11.402,17.951,22.009,16.404l16.876-2.05
	c1.994-0.242,3.751,1.314,3.751,3.323v39.657h39.734v-45.294c0-1.693,1.264-3.118,2.943-3.323l137.518-16.701
	C369.821,235.63,377.166,225.776,375.618,215.168z"/>
<path style="fill:#9C9DA0;" d="M297.308,504.498h-82.615c-11.863,0-21.479-9.616-21.479-21.479v-66.643h125.573v66.642
	C318.787,494.882,309.171,504.498,297.308,504.498z"/>
<path style="fill:#909091;" d="M264.977,416.376v66.642c0,11.863-9.616,21.479-21.479,21.479h53.81
	c11.863,0,21.479-9.616,21.479-21.479v-66.642H264.977z"/>
<path style="fill:#96CBEB;" d="M170.786,285.708c-12.259,0-22.196,9.938-22.196,22.196v18.81c0,15.275,4.787,30.166,13.688,42.58
	l0,0c8.901,12.414,13.688,23.243,13.688,38.518l0,0c0,7.473,6.059,13.532,13.532,13.532h133.003c7.474,0,13.532-6.059,13.532-13.532
	l0,0c0-15.275,4.787-26.104,13.688-38.518l0,0c8.901-12.414,13.688-27.305,13.688-42.58v-18.81c0-12.259-9.938-22.196-22.196-22.196
	H170.786z"/>
<path style="fill:#75B8DB;" d="M341.215,285.708h-54.168c12.259,0,22.196,9.938,22.196,22.196v18.81
	c0,15.275-4.787,30.166-13.688,42.58s-13.688,23.243-13.688,38.518l0,0c0,7.473-6.059,13.532-13.532,13.532h54.168
	c7.474,0,13.532-6.059,13.532-13.532l0,0c0-15.275,4.787-26.104,13.688-38.518s13.688-27.305,13.688-42.58v-18.81
	C363.411,295.646,353.474,285.708,341.215,285.708z"/>
<path style="fill:#CCDFED;" d="M375.618,176.065L375.618,176.065c-1.548-10.608-11.402-17.951-22.009-16.404l-200.821,24.389
	c-10.607,1.548-17.951,11.402-16.404,22.009l0,0c1.548,10.608,11.402,17.951,22.009,16.404l200.821-24.389
	C369.821,196.526,377.166,186.672,375.618,176.065z"/>
<path style="fill:#E1EFFB;" d="M375.618,136.944L375.618,136.944c-1.548-10.608-11.402-17.951-22.009-16.404l-200.821,24.389
	c-10.607,1.548-17.951,11.402-16.404,22.009l0,0c1.548,10.608,11.402,17.951,22.009,16.404l200.821-24.389
	C369.821,157.405,377.166,147.551,375.618,136.944z"/>
<path style="fill:#CCDFED;" d="M375.618,97.828L375.618,97.828c-1.548-10.608-11.402-17.951-22.009-16.404l-200.821,24.389
	c-10.607,1.548-17.951,11.402-16.404,22.009l0,0c1.548,10.608,11.402,17.951,22.009,16.404l200.821-24.389
	C369.821,118.289,377.166,108.435,375.618,97.828z"/>
<path style="fill:#E1EFFB;" d="M375.618,58.718L375.618,58.718c-1.548-10.608-11.402-17.951-22.009-16.404L152.787,66.704
	c-10.607,1.548-17.951,11.402-16.404,22.009l0,0c1.548,10.608,11.402,17.951,22.009,16.404l200.821-24.389
	C369.821,79.18,377.166,69.326,375.618,58.718z"/>
<path style="fill:#CCDFED;" d="M338.455,24.884c-1.133-10.78-10.877-18.543-21.637-17.235L178.204,24.483
	c-10.607,1.548-17.951,11.402-16.404,22.009c1.548,10.608,11.402,17.951,22.009,16.404l137.686-16.722
	C332.013,44.898,339.561,35.421,338.455,24.884L338.455,24.884z"/>
<path style="fill:#BFD2DD;" d="M375.618,97.828L375.618,97.828c-1.548-10.607-11.402-17.951-22.009-16.404l-30.839,3.746v39.093
	l36.445-4.426C369.821,118.29,377.166,108.435,375.618,97.828z"/>
<path style="fill:#CCDFED;" d="M375.618,136.944L375.618,136.944c-1.548-10.608-11.402-17.951-22.009-16.404l-30.839,3.746v39.093
	l36.445-4.426C369.821,157.405,377.166,147.551,375.618,136.944z"/>
<path style="fill:#BFD2DD;" d="M375.618,176.065L375.618,176.065c-1.548-10.607-11.402-17.951-22.009-16.404l-30.839,3.746V202.5
	l36.445-4.426C369.821,196.525,377.166,186.672,375.618,176.065z"/>
<g>
	<path style="fill:#CCDFED;" d="M375.618,215.168L375.618,215.168c-1.548-10.608-11.402-17.951-22.009-16.404l-30.839,3.746v39.093
		l36.445-4.426C369.821,235.63,377.166,225.776,375.618,215.168z"/>
	<path style="fill:#CCDFED;" d="M375.618,58.718L375.618,58.718c-1.548-10.608-11.402-17.951-22.009-16.404l-30.839,3.746v39.094
		l36.445-4.426C369.821,79.18,377.166,69.326,375.618,58.718z"/>
</g>
<path style="fill:#BFD2DD;" d="M338.455,24.884c-1.133-10.78-10.877-18.543-21.637-17.235l-29.953,3.638V50.38l34.631-4.206
	C332.013,44.898,339.561,35.421,338.455,24.884z"/>
<path d="M383.042,135.861c-0.908-6.228-3.9-11.643-8.158-15.659c1.121-1.062,2.164-2.223,3.105-3.488
	c4.296-5.764,6.09-12.856,5.052-19.969c-0.886-6.072-3.752-11.534-8.155-15.677c6.143-5.824,9.467-14.439,8.155-23.432
	c-2.138-14.653-15.776-24.839-30.421-22.76l-8.117,0.985c1.311-3.666,1.843-7.662,1.413-11.76
	c-0.759-7.23-4.309-13.705-9.995-18.236S323.131-0.674,315.913,0.2L177.299,17.036c-0.06,0.007-0.12,0.016-0.179,0.024
	c-14.684,2.144-24.888,15.833-22.745,30.517c0.586,4.017,2.05,7.688,4.147,10.873l-6.64,0.806c-0.06,0.007-0.119,0.016-0.179,0.023
	c-14.684,2.143-24.888,15.832-22.745,30.518c0.886,6.073,3.752,11.535,8.155,15.677c-6.143,5.824-9.466,14.439-8.155,23.432
	c0.909,6.234,3.917,11.64,8.181,15.657c-6.16,5.824-9.495,14.451-8.181,23.458c0.886,6.075,3.754,11.539,8.16,15.682
	c-6.146,5.824-9.472,14.442-8.16,23.438c0.885,6.066,3.746,11.523,8.141,15.664c-1.115,1.058-2.151,2.213-3.088,3.471
	c-4.296,5.764-6.09,12.855-5.052,19.968c2.138,14.653,15.77,24.847,30.421,22.76l12.136-1.475v10.673h-0.729
	c-16.377,0-29.7,13.322-29.7,29.7v18.81c0,16.946,5.219,33.181,15.094,46.953c8.953,12.486,12.282,21.74,12.282,34.145
	c0,10.304,7.453,18.885,17.248,20.677l0,0l0,0v54.531c0,15.981,13.001,28.982,28.983,28.982h82.615
	c15.981,0,28.983-13.001,28.983-28.982v-54.531c9.795-1.792,17.247-10.372,17.247-20.677c0-12.404,3.329-21.658,12.283-34.145
	c9.875-13.771,15.093-30.007,15.093-46.953v-18.81c0-14.726-10.774-26.976-24.852-29.298v-32.273l14.056-1.707
	c0.06-0.007,0.119-0.016,0.178-0.023c7.113-1.038,13.397-4.784,17.693-10.549c4.296-5.764,6.09-12.856,5.052-19.969
	c-0.909-6.229-3.901-11.648-8.161-15.665c6.147-5.824,9.473-14.442,8.161-23.438c-0.909-6.229-3.902-11.646-8.161-15.662
	c1.123-1.064,2.166-2.225,3.108-3.49C382.286,150.067,384.081,142.974,383.042,135.861z M179.208,31.922l138.513-16.823
	c3.189-0.39,6.335,0.501,8.85,2.506c2.515,2.003,4.085,4.867,4.42,8.065c0.674,6.422-3.991,12.279-10.401,13.058L182.905,55.449
	c-0.06,0.007-0.119,0.016-0.178,0.023c-6.502,0.95-12.554-3.566-13.501-10.063C168.28,38.94,172.754,32.907,179.208,31.922z
	 M153.792,152.366l200.72-24.376c0.06-0.007,0.119-0.016,0.179-0.023c6.494-0.948,12.553,3.566,13.501,10.063
	c0.459,3.147-0.334,6.284-2.235,8.833c-1.885,2.528-4.633,4.18-7.748,4.654l-200.722,24.377c-0.06,0.007-0.12,0.016-0.179,0.024
	c-3.148,0.456-6.284-0.335-8.834-2.235c-2.55-1.9-4.208-4.68-4.667-7.827C142.865,159.385,147.338,153.351,153.792,152.366z
	 M153.793,113.251l200.72-24.375c0.06-0.007,0.12-0.016,0.179-0.024c3.146-0.458,6.284,0.334,8.834,2.235
	c2.55,1.9,4.208,4.68,4.667,7.827c0.459,3.146-0.334,6.284-2.235,8.834c-1.885,2.529-4.634,4.18-7.75,4.655l-200.72,24.376
	c-0.06,0.007-0.119,0.016-0.179,0.023c-6.497,0.952-12.553-3.566-13.501-10.063C142.865,120.27,147.339,114.236,153.793,113.251z
	 M311.284,438.685h-57.209c-4.144,0-7.503,3.359-7.503,7.504c0,4.145,3.36,7.504,7.503,7.504h57.209v11.903h-57.209
	c-4.144,0-7.503,3.359-7.503,7.504c0,4.145,3.36,7.504,7.503,7.504h57.209v2.417c0,7.706-6.27,13.975-13.976,13.975h-82.615
	c-7.706,0-13.976-6.27-13.976-13.975v-2.417h17.918c4.144,0,7.504-3.359,7.504-7.504c0-4.145-3.36-7.504-7.504-7.504h-17.918
	v-11.903h17.918c4.144,0,7.504-3.359,7.504-7.504c0-4.145-3.36-7.504-7.504-7.504h-17.918l0,0v-9.838h110.566L311.284,438.685
	L311.284,438.685z M355.907,307.904v18.81c0,13.789-4.247,27.002-12.282,38.208c-10.721,14.95-15.094,27.376-15.094,42.889
	c0,3.325-2.704,6.029-6.029,6.029l0,0H189.499l0,0c-3.325,0-6.029-2.704-6.029-6.029c0-15.513-4.373-27.939-15.093-42.889
	c-8.036-11.206-12.283-24.418-12.283-38.208v-18.81c0-8.102,6.591-14.693,14.693-14.693l0,0l0,0h170.429l0,0l0,0
	C349.317,293.213,355.907,299.804,355.907,307.904z M226.256,278.206v-17.321l67.096-8.149v25.47H226.256z M308.36,278.206v-27.292
	l0.108-0.013l22.589-2.743v30.048H308.36z M365.957,225.087c-1.885,2.529-4.634,4.18-7.75,4.655l0,0l0,0c-0.003,0,0.003,0,0,0
	L220.79,246.431c-5.44,0.661-9.541,5.292-9.541,10.772v21.003h-24.727v-15.364c0-3.104-1.333-6.065-3.656-8.123
	s-5.426-3.022-8.503-2.648l-16.876,2.05c-0.06,0.007-0.119,0.016-0.179,0.023c-6.497,0.953-12.553-3.566-13.501-10.063
	c-0.459-3.147,0.334-6.284,2.235-8.833c1.885-2.529,4.634-4.18,7.75-4.655l200.72-24.376c0.06-0.007,0.119-0.016,0.179-0.023
	c6.494-0.95,12.553,3.565,13.501,10.062C368.652,219.399,367.858,222.537,365.957,225.087z M358.208,190.639l-200.72,24.375
	c-0.06,0.007-0.12,0.016-0.179,0.024c-3.148,0.456-6.284-0.335-8.834-2.235c-2.55-1.9-4.208-4.68-4.667-7.827
	c-0.943-6.471,3.53-12.505,9.984-13.489l200.72-24.376c0.06-0.007,0.119-0.016,0.179-0.023c6.494-0.956,12.553,3.565,13.501,10.063
	C369.137,183.619,364.663,189.653,358.208,190.639z M358.208,73.293l-200.72,24.376c-0.06,0.007-0.12,0.016-0.179,0.024
	c-3.148,0.458-6.284-0.335-8.834-2.235c-2.55-1.9-4.208-4.68-4.667-7.827c-0.943-6.471,3.53-12.505,9.984-13.489l200.722-24.377
	c0.06-0.007,0.119-0.016,0.179-0.023c6.494-0.95,12.553,3.566,13.501,10.063C369.137,66.274,364.663,72.307,358.208,73.293z"/>
<g>
</g>
<g>
</g>
<g>
</g>
<g>
</g>
<g>
</g>
<g>
</g>
<g>
</g>
<g>
</g>
<g>
</g>
<g>
</g>
<g>
</g>
<g>
</g>
<g>
</g>
<g>
</g>
<g>
</g>
</svg>
