<?xml version="1.0" encoding="iso-8859-1"?>
<!-- Generator: Adobe Illustrator 19.0.0, SVG Export Plug-In . SVG Version: 6.00 Build 0)  -->
<svg version="1.1" id="Capa_1" xmlns="http://www.w3.org/2000/svg" xmlns:xlink="http://www.w3.org/1999/xlink" x="0px" y="0px"
	 viewBox="0 0 480.272 480.272" style="enable-background:new 0 0 480.272 480.272;" xml:space="preserve">
<path style="fill:#87CED9;" d="M239.224,8.272C161.904,8.323,99.265,71.044,99.316,148.364c0.008,12.123,1.59,24.193,4.708,35.908
	h270.512c19.882-74.72-24.572-151.41-99.292-171.292C263.492,9.852,251.384,8.27,239.224,8.272z"/>
<g>
	<path style="fill:#B6E8F0;" d="M198.888,49.792c-8.314,3.675-16.148,8.353-23.328,13.928l9.792,12.648
		c6.161-4.773,12.876-8.784,20-11.944L198.888,49.792z"/>
	<path style="fill:#B6E8F0;" d="M132.136,152.272h16c-0.005-23.104,8.326-45.434,23.464-62.888l-12.08-10.488
		C141.859,99.262,132.136,125.314,132.136,152.272z"/>
</g>
<path style="fill:#78C3CF;" d="M345.6,57.288c-5.747,44.336-19.24,87.318-39.864,126.984h68.8
	C386.42,139.762,375.595,92.254,345.6,57.288L345.6,57.288z"/>
<path style="fill:#4398D1;" d="M104.008,184.272c2.1,7.814,4.86,15.436,8.248,22.784l59.88,177.216h128l63.648-172.264
	c4.545-8.844,8.149-18.14,10.752-27.736H104.008z"/>
<path style="fill:#3E8CC7;" d="M303.336,184.272c-35.57,66.788-83.959,125.908-142.4,173.976l8.8,26.024h128l63.648-172.264
	c4.538-8.847,8.141-18.142,10.752-27.736H303.336z"/>
<path style="fill:#DEDEDE;" d="M172.136,384.272h128l0,0v48c0,8.837-7.163,16-16,16h-96c-8.837,0-16-7.163-16-16V384.272
	L172.136,384.272z"/>
<path style="fill:#CFCFCF;" d="M268.136,384.272v48c0,8.837-7.163,16-16,16h32c8.837,0,16-7.163,16-16v-48H268.136z"/>
<path style="fill:#BABABA;" d="M172.136,408.272h128v16h-128V408.272z"/>
<g>
	<path style="fill:#3570AB;" d="M236.136,352.272c-4.418,0-8-3.582-8-8v-128c0-4.418,3.582-8,8-8s8,3.582,8,8v128
		C244.136,348.69,240.554,352.272,236.136,352.272z"/>
	<path style="fill:#3570AB;" d="M196.136,352.272c-3.845-0.007-7.141-2.749-7.848-6.528l-24-128
		c-0.998-4.304,1.682-8.602,5.986-9.601c4.304-0.998,8.602,1.682,9.601,5.986c0.051,0.222,0.093,0.445,0.126,0.671l24,128
		c0.813,4.343-2.049,8.522-6.391,9.335C197.123,352.226,196.63,352.272,196.136,352.272z"/>
	<path style="fill:#3570AB;" d="M276.136,352.272c-4.418,0-8-3.581-8.001-7.999c0-0.494,0.046-0.987,0.137-1.473l24-128
		c0.628-4.373,4.682-7.41,9.055-6.782c4.373,0.628,7.41,4.682,6.782,9.055c-0.032,0.225-0.074,0.449-0.126,0.671l-24,128
		C283.276,349.523,279.981,352.264,276.136,352.272z"/>
</g>
<path style="fill:#BABABA;" d="M212.136,448.272h48l0,0c0,13.255-10.745,24-24,24l0,0
	C222.881,472.272,212.136,461.526,212.136,448.272L212.136,448.272L212.136,448.272z"/>
<path style="fill:#3E8CC7;" d="M112.664,208.272h252.8c3.732-7.714,6.768-15.746,9.072-24H104.008
	c2.1,7.814,4.86,15.436,8.248,22.784L112.664,208.272z"/>
<path style="fill:#4398D1;" d="M388.136,192.272h-296c-4.418,0-8-3.582-8-8s3.582-8,8-8h296c4.418,0,8,3.582,8,8
	S392.554,192.272,388.136,192.272z"/>
<path d="M236.136,352.272c4.418,0,8-3.582,8-8v-128c0-4.418-3.582-8-8-8s-8,3.582-8,8v128
	C228.136,348.69,231.718,352.272,236.136,352.272z"/>
<path d="M196.136,352.272c4.418,0,8-3.581,8.001-7.999c0-0.494-0.046-0.987-0.137-1.473l-24-128
	c-0.628-4.373-4.682-7.41-9.055-6.782c-4.373,0.628-7.41,4.682-6.782,9.055c0.032,0.225,0.074,0.449,0.126,0.671l24,128
	C188.995,349.523,192.291,352.264,196.136,352.272z"/>
<path d="M274.656,352.136c4.343,0.812,8.522-2.05,9.335-6.393c0-0.002,0.001-0.005,0.001-0.007l24-128
	c0.998-4.304-1.682-8.602-5.986-9.601c-4.304-0.998-8.602,1.682-9.601,5.986c-0.051,0.222-0.093,0.445-0.126,0.671l-24,128
	C267.461,347.133,270.315,351.316,274.656,352.136z"/>
<path d="M92.136,192.272h5.84c1.903,6.052,4.185,11.979,6.832,17.744l59.328,175.568v46.688c0,13.255,10.745,24,24,24h17.136
	c4.338,17.046,21.674,27.347,38.719,23.009c11.304-2.877,20.131-11.704,23.009-23.009h17.136c13.255,0,24-10.745,24-24v-46.56
	l62.992-170.488c3.728-7.381,6.84-15.058,9.304-22.952h7.704c4.418,0,8-3.582,8-8s-3.582-8-8-8h-3.616
	c15.599-80.236-36.8-157.925-117.036-173.524S109.559,39.548,93.96,119.784c-3.627,18.655-3.627,37.833,0,56.488h-1.824
	c-4.418,0-8,3.582-8,8S87.718,192.272,92.136,192.272z M292.136,408.272h-112v-16h112V408.272z M236.136,464.272
	c-5.713-0.003-10.991-3.052-13.848-8h27.696C247.127,461.219,241.849,464.269,236.136,464.272L236.136,464.272z M284.136,440.272
	h-96c-4.418,0-8-3.582-8-8v-8h112v8C292.136,436.69,288.554,440.272,284.136,440.272z M356.664,208.36
	c-0.144,0.286-0.272,0.58-0.384,0.88l-61.744,167.032H177.88l-58.048-171.784c-0.096-0.272-0.2-0.536-0.32-0.8
	c-1.744-3.752-3.2-7.568-4.6-11.416h248.704C361.654,197.781,359.332,203.155,356.664,208.36L356.664,208.36z M128.032,77.16
	c39.279-61.415,120.907-79.36,182.322-40.082c46.494,29.736,69.581,85.259,57.878,139.194H110.32
	c-7.497-34.068-1.124-69.719,17.712-99.08L128.032,77.16z"/>
<path d="M175.56,63.72l9.792,12.648c6.161-4.773,12.876-8.784,20-11.944l-6.464-14.632C190.574,53.467,182.74,58.144,175.56,63.72z"
	/>
<path d="M132.136,152.272h16c-0.005-23.104,8.326-45.434,23.464-62.888l-12.08-10.488
	C141.859,99.262,132.136,125.314,132.136,152.272z"/>
<g>
</g>
<g>
</g>
<g>
</g>
<g>
</g>
<g>
</g>
<g>
</g>
<g>
</g>
<g>
</g>
<g>
</g>
<g>
</g>
<g>
</g>
<g>
</g>
<g>
</g>
<g>
</g>
<g>
</g>
</svg>
